# xmcd
# 
# Track frame offsets:
#     150
#     18937
#     36080
# 
# Disc length: 729
# 
# Revision: 1
# Processed by: cddbd v1.5.2PL0 Copyright (c) Steve Scherf et al.
# Submitted via: fre:ac v1.0.17
# 
DISCID=1802d703
DTITLE=大黒摩季 - Harlem Night
DYEAR=1993
DGENRE=J-Pop
TTITLE0=Harlem Night
TTITLE1=スキなんだもんしょうがないジャン
TTITLE2=Harlem Night（オリジナル・カラオケ）
EXTD=
EXTT0=
EXTT1=
EXTT2=
PLAYORDER=
